HIERARCHY
ROOT Hips
{
	OFFSET 0.0000 0.0000 0.0000
	CHANNELS 6 Xposition Yposition Zposition Zrotation Xrotation Yrotation
	JOINT Ab
	{
		OFFSET -0.0000 8.0846 -0.0000
		CHANNELS 3 Zrotation Xrotation Yrotation
		JOINT Chest
		{
			OFFSET -0.0000 25.0068 -0.0000
			CHANNELS 3 Zrotation Xrotation Yrotation
			JOINT Neck
			{
				OFFSET -0.0000 25.0068 0.0000
				CHANNELS 3 Zrotation Xrotation Yrotation
				JOINT Head
				{
					OFFSET -0.0000 10.7556 0.0000
					CHANNELS 3 Zrotation Xrotation Yrotation
					End Site
					{
						OFFSET -0.0000 16.6222 0.0000
					}
				}
			}
			JOINT LeftCollar
			{
				OFFSET -0.0000 25.0068 0.0000
				CHANNELS 3 Zrotation Xrotation Yrotation
				JOINT LeftShoulder
				{
					OFFSET 19.5556 -0.0000 0.0000
					CHANNELS 3 Zrotation Xrotation Yrotation
					JOINT LeftElbow
					{
						OFFSET 27.1828 0.0000 0.0000
						CHANNELS 3 Zrotation Xrotation Yrotation
						JOINT LeftWrist
						{
							OFFSET 23.3157 0.0000 0.0000
							CHANNELS 3 Zrotation Xrotation Yrotation
							End Site
							{
								OFFSET 0.0000 -14.6667 0.0000
							}
						}
					}
				}
			}
			JOINT RightCollar
			{
				OFFSET -0.0000 25.0068 0.0000
				CHANNELS 3 Zrotation Xrotation Yrotation
				JOINT RightShoulder
				{
					OFFSET -19.5556 0.0000 0.0000
					CHANNELS 3 Zrotation Xrotation Yrotation
					JOINT RightElbow
					{
						OFFSET -27.1828 0.0000 0.0000
						CHANNELS 3 Zrotation Xrotation Yrotation
						JOINT RightWrist
						{
							OFFSET -23.3157 0.0000 0.0000
							CHANNELS 3 Zrotation Xrotation Yrotation
							End Site
							{
								OFFSET -0.0000 -14.6667 0.0000
							}
						}
					}
				}
			}
		}
	}
	JOINT LeftHip
	{
		OFFSET 11.7333 0.0000 0.0000
		CHANNELS 3 Zrotation Xrotation Yrotation
		JOINT LeftKnee
		{
			OFFSET -0.0000 -40.8688 0.0000
			CHANNELS 3 Zrotation Xrotation Yrotation
			JOINT LeftAnkle
			{
				OFFSET -0.0000 -44.4337 0.0000
				CHANNELS 3 Zrotation Xrotation Yrotation
				End Site
				{
					OFFSET -0.0000 -4.8889 16.6222
				}
			}
		}
	}
	JOINT RightHip
	{
		OFFSET -11.7333 0.0000 0.0000
		CHANNELS 3 Zrotation Xrotation Yrotation
		JOINT RightKnee
		{
			OFFSET -0.0000 -40.8688 0.0000
			CHANNELS 3 Zrotation Xrotation Yrotation
			JOINT RightAnkle
			{
				OFFSET -0.0000 -44.4337 0.0000
				CHANNELS 3 Zrotation Xrotation Yrotation
				End Site
				{
					OFFSET -0.0000 -4.8889 16.6222
				}
			}
		}
	}
}
MOTION
Frames: 24
Frame Time: 0.010000
-9.6540 87.4904 65.0217 3.8903 0.6689 172.8106 359.5359 3.2191 357.6173 1.1566 14.1252 357.4602 4.3699 354.6649 1.6467 355.7736 21.9260 2.2617 339.6053 358.9814 5.7336 304.4204 28.8979 349.2095 14.1263 355.4305 323.7479 82.8205 0.7700 337.1192 21.5825 359.0564 355.0700 60.8801 38.9216 7.7380 339.3174 354.3315 30.4393 278.4364 352.9579 22.3263 358.9110 3.6167 357.0107 357.5933 8.8987 357.9205 2.6656 351.2869 22.8184 2.5060 335.5391 4.6377 0.9114 21.3447 1.1620 357.7719 354.6189 335.7298 
-9.5929 87.4523 64.7231 3.8370 0.7144 172.9770 359.4833 3.2883 357.6161 1.2113 14.1771 357.4476 4.4294 354.6689 1.5765 355.7580 21.9205 2.1902 339.5592 358.9961 5.6763 304.2833 28.8606 349.4242 14.0105 355.4373 323.7592 82.7960 0.8487 336.8715 21.5780 359.0219 355.0204 60.9476 38.8337 7.5356 339.3962 354.3498 30.3637 278.6289 353.1047 22.5578 358.8855 3.8220 357.0263 357.5838 8.9310 357.9688 2.4354 351.0341 22.6155 2.4686 335.4390 4.8458 0.8864 20.6757 1.0675 357.7884 354.7256 336.5125 
-9.5234 87.4074 64.4235 3.7845 0.6455 173.1353 359.4557 3.2126 357.6141 1.2555 14.2618 357.4405 4.4703 354.6595 1.5062 355.7722 21.9136 2.1124 339.5130 358.9640 5.6424 304.1383 28.8257 349.6631 13.8854 355.4584 323.7245 82.8446 0.9000 336.5554 21.5655 359.0295 354.9629 61.0355 38.6551 7.3684 339.5488 354.4160 30.2681 278.8331 353.1829 22.6413 358.8919 3.8325 357.1132 357.5619 9.1304 357.9362 2.3229 350.7069 22.4528 2.4545 335.2078 5.0633 0.8815 20.1262 1.0363 358.1300 354.6503 336.1243 
-9.4437 87.3668 64.1053 3.7401 0.6802 173.2743 359.4047 3.2260 357.6393 1.3123 14.3708 357.4547 4.5258 354.6167 1.4361 355.7744 21.9359 2.0383 339.5234 358.9878 5.5604 303.8951 28.4558 349.9410 13.5663 355.5866 323.6529 82.8103 0.9892 336.1119 21.5262 359.0325 354.9322 61.1738 38.5008 7.2028 339.6666 354.4912 30.1234 278.8690 353.2796 22.6282 358.8881 4.0643 357.3009 357.5803 9.1358 357.8046 1.8556 350.4854 22.1795 2.4451 335.0944 5.2864 0.8521 19.6751 0.8041 359.7168 353.4794 338.6625 
-9.3636 87.3267 63.7899 3.6822 0.6971 173.4444 359.3667 3.2585 357.6469 1.3494 14.4152 357.4558 4.5673 354.6229 1.3475 355.8233 21.9118 1.9382 339.4923 359.0127 5.4959 303.7639 28.2999 350.1771 13.3718 355.6383 323.5800 82.8061 1.0585 335.8843 21.5020 359.0275 354.8959 61.3599 38.2825 6.9760 339.8154 354.5408 29.9814 278.8403 353.3477 22.6463 358.8863 4.2776 357.3614 357.5668 9.1286 357.6920 1.7257 350.2730 22.1328 2.4105 334.9533 5.4105 0.7968 19.3599 0.8957 358.2018 354.7007 336.8871 
-9.2821 87.2843 63.4660 3.6219 0.7328 173.6453 359.2616 3.2477 357.7103 1.4791 14.5816 357.4971 4.6436 354.5371 1.2078 355.8107 21.9143 1.7914 339.4357 359.0160 5.4204 303.6962 28.2979 350.3193 13.2575 355.6473 323.5226 82.7736 1.0653 335.6936 21.4147 359.0330 354.8025 61.5348 38.0848 6.8611 339.8639 354.5892 29.7660 278.9128 353.1664 22.5059 358.8817 4.5025 357.1872 357.5249 9.1269 357.7813 1.6789 350.1105 22.0563 2.3433 334.8694 5.6349 0.8115 19.0617 0.7878 358.6748 354.5064 337.4438 
-9.1938 87.2399 63.1354 3.5559 0.7495 173.8346 359.1278 3.1948 357.7911 1.6405 14.7856 357.5504 4.7829 354.4243 1.0430 355.7077 21.9377 1.6334 339.3675 359.0088 5.3453 303.6941 28.4667 350.4116 13.2483 355.6196 323.5053 82.6872 1.0677 335.7270 21.3232 359.0106 354.6751 61.7348 37.8651 6.7361 339.8784 354.6214 29.6448 278.9677 353.1984 22.4881 358.8916 4.7280 356.8747 357.4266 9.1007 357.9525 1.5628 349.9284 22.0089 2.2766 334.7504 5.6052 0.7737 18.8552 0.7216 359.2866 354.0844 338.3137 
-9.1051 87.1905 62.8081 3.4782 0.7029 174.0825 359.1184 3.1823 357.7464 1.6666 14.7956 357.5022 4.7820 354.3446 0.9350 355.8701 22.0571 1.4994 339.3194 359.0014 5.3900 303.7098 28.7746 350.5174 13.3084 355.5655 323.5316 82.6433 1.0450 335.7972 21.3129 358.9862 354.5702 61.9232 37.6716 6.5158 339.9304 354.6763 29.5355 279.1176 353.2993 22.4789 358.8687 4.8061 356.8370 357.4389 9.2248 357.8734 1.3666 349.6552 21.8842 2.1710 334.5701 5.4529 0.7261 18.7153 0.8568 359.2075 354.1617 338.2999 
-9.0088 87.1385 62.4727 3.3888 0.6375 174.3260 359.0668 3.1149 357.7378 1.7297 14.8551 357.4831 4.7219 354.2990 0.8597 356.0620 22.1001 1.3924 339.2415 358.9871 5.5830 303.8127 29.3417 350.4849 13.5337 355.4363 323.6605 82.4858 0.9807 336.0373 21.2605 358.9593 354.5352 62.1177 37.5683 6.3031 339.9189 354.7083 29.3568 279.2139 353.3450 22.4091 358.8391 4.8227 357.1474 357.5066 9.4606 357.4551 1.4786 349.3772 21.8303 2.0532 334.3939 5.3356 0.7009 18.5909 1.0038 358.1193 354.7368 337.5013 
-8.9064 87.0884 62.1275 3.3029 0.5808 174.5606 359.0426 3.0569 357.7487 1.7515 14.9050 357.4909 4.7672 354.3055 0.7664 356.1069 22.0347 1.2807 339.1992 358.9866 5.6314 303.8217 29.5298 350.5868 13.5587 355.4784 323.6692 82.5381 0.8747 336.1882 21.2411 358.9476 354.4454 62.2650 37.3414 6.1376 340.0622 354.7634 29.2228 279.2622 353.3747 22.6566 358.8231 4.9031 357.2075 357.5236 9.6044 357.2266 1.5247 349.1389 21.8448 1.9584 334.2596 5.2407 0.6850 18.4866 0.9502 357.9653 354.7286 337.5072 
-8.7933 87.0362 61.7714 3.2283 0.5480 174.7876 359.0192 3.0314 357.7653 1.7990 14.9373 357.4995 4.7848 354.2954 0.6748 356.1625 22.0129 1.1784 339.1497 358.9592 5.6805 303.8149 29.7316 350.7100 13.6110 355.4552 323.6704 82.5365 0.7998 336.3450 21.2161 358.9461 354.3760 62.4297 37.1266 5.9308 340.1859 354.7993 29.1830 279.3496 353.5058 23.0983 358.8216 5.0466 357.1352 357.5267 9.6816 357.1787 1.4765 348.9228 21.7789 1.8713 334.1882 5.1760 0.6922 18.3951 0.8846 358.1632 354.6447 337.6006 
-8.6708 86.9830 61.3981 3.1417 0.4883 175.0285 358.9579 2.9313 357.7968 1.8795 15.0358 357.5180 4.7748 354.3178 0.5835 356.3128 21.9214 1.0466 339.1171 358.9640 5.6849 303.7670 29.7319 350.8537 13.5489 355.5031 323.6520 82.5632 0.7676 336.4904 21.1715 358.9222 354.2545 62.5726 37.0801 5.8011 340.1640 354.8123 29.0539 279.5112 353.4623 23.3276 358.8158 5.1677 357.1846 357.5574 9.7702 357.0688 1.4104 348.6944 21.6199 1.7872 334.1327 5.0750 0.6819 18.2601 0.8473 357.7785 354.5993 337.2469 
-8.5401 86.9337 61.0719 3.0250 0.2547 175.2789 358.9021 2.7893 357.7683 1.9377 14.9576 357.4835 4.7557 354.2911 0.4923 356.4600 21.9337 0.9330 339.0812 358.9397 5.8127 303.7922 30.0109 350.9208 13.7353 355.4367 323.7057 82.6296 0.6608 337.2488 21.1675 358.8906 354.1621 62.7004 36.9967 5.5990 340.3143 354.8699 28.9072 279.3715 353.3401 23.3381 358.8272 5.0483 357.1013 357.5272 9.9259 356.9504 1.3382 348.4551 21.5914 1.7068 333.8738 5.0674 0.6701 18.1941 0.5237 357.7323 354.5585 337.6542 
-8.4027 86.8957 60.7210 2.9401 0.0819 175.5536 358.8635 2.6466 357.7768 2.0103 14.9817 357.4827 4.7855 354.2529 0.4247 356.4985 21.9103 0.8267 339.0448 358.9141 5.8978 303.7771 30.1790 351.0039 13.9155 355.3874 323.7550 82.7386 0.6514 338.0448 21.1250 358.8958 354.1195 62.8718 36.8083 5.4015 340.4065 354.8994 28.8503 279.5053 353.3511 23.4844 358.8559 5.0098 357.0582 357.5403 10.0668 356.8639 1.2452 348.2078 21.4747 1.6394 333.7608 5.0277 0.6563 18.0476 0.4497 357.6620 354.5946 337.3638 
-8.2629 86.8411 60.3491 2.8370 359.9827 175.8293 358.8361 2.5734 357.7881 2.0267 15.0089 357.4914 4.8646 354.2043 0.3155 356.4836 21.8799 0.7549 339.0218 358.8778 6.0431 303.8465 30.6598 350.9793 14.3142 355.2116 323.8227 82.8127 0.7968 339.2355 21.1148 358.8889 354.0464 63.0418 36.7172 5.2160 340.4434 354.9396 28.7769 279.4042 353.4135 23.4004 358.8537 5.0530 357.0242 357.5638 10.2254 356.7339 1.1339 347.9332 21.3790 1.5344 333.7423 4.9994 0.6758 17.9579 0.2301 357.9410 354.4661 337.4470 
-8.1160 86.7905 59.9879 2.7392 359.8542 176.1022 358.9705 2.5528 357.7523 1.8169 14.9222 357.4879 4.9172 354.1815 0.2449 356.6032 21.8696 0.6752 339.1130 358.8776 6.0130 303.6745 30.2620 351.2384 14.2052 355.3031 323.6265 83.2133 1.1045 339.6895 21.2044 358.8793 354.0048 63.2257 36.5806 4.9634 340.4812 354.9482 28.7227 279.3148 353.3834 23.3009 358.8831 5.0649 356.8713 357.5336 10.3608 356.7102 1.0770 347.7064 21.2890 1.4600 333.6893 4.9164 0.6405 17.9069 0.2311 357.8759 354.3854 337.3623 
-7.9575 86.7265 59.5866 2.6485 359.7789 176.3458 359.1376 2.5819 357.7067 1.6183 14.7613 357.4739 4.7904 354.3117 0.2248 356.8380 21.7879 0.5953 339.1967 358.9254 5.7906 303.2415 28.9247 351.8226 13.6584 355.5434 323.2895 83.5142 1.1831 339.2836 21.2844 358.8605 354.0429 63.4148 36.5086 4.6018 340.4893 354.9706 28.6942 279.3539 353.4024 23.3132 358.9166 5.1815 356.8199 357.5251 10.4695 356.5531 0.9912 347.4421 21.2648 1.4064 333.7289 4.9317 0.6259 17.8711 0.3059 357.9950 354.1387 337.2248 
-7.7736 86.6544 59.1384 2.5876 359.7754 176.5430 359.1610 2.5498 357.7369 1.6206 14.8112 357.5045 4.7301 354.3077 0.1944 356.9426 21.7556 0.5481 339.1774 358.9187 5.9905 303.2382 29.0792 351.7950 13.9501 355.3363 323.3197 83.3721 1.0711 339.6225 21.2754 358.8868 354.0752 63.5927 36.3716 4.3450 340.5284 354.9708 28.7148 279.4703 353.4975 23.5303 358.9942 5.4466 356.8540 357.5163 10.5168 356.3386 0.8673 347.1657 21.3166 1.4299 333.9086 5.0345 0.6085 17.8076 0.3611 358.2147 353.9370 337.0406 
-7.5963 86.5737 58.6869 2.5147 359.7484 176.7511 359.2117 2.4996 357.7506 1.5990 14.8534 357.5223 4.7108 354.2515 0.1459 356.9984 21.8135 0.4942 339.1723 358.8838 6.1342 303.2471 29.2469 351.7857 14.2123 355.2162 323.3467 83.3103 0.9578 339.8181 21.2791 358.9029 354.0384 63.7234 36.2789 4.1412 340.5616 354.9616 28.7877 279.4859 353.6237 23.6790 359.0532 5.6882 356.8186 357.5053 10.5548 356.2127 0.7549 346.8980 21.3536 1.4300 334.0650 5.0721 0.5905 17.8074 0.4023 358.2949 353.7995 337.0124 
-7.4314 86.5017 58.2778 2.3926 359.6328 177.0181 359.2493 2.4823 357.7430 1.5612 14.7724 357.5215 4.6817 354.2065 0.0954 357.0779 21.8261 0.4213 339.1783 358.8491 6.2044 303.2403 29.1998 351.8542 14.3045 355.2071 323.2984 83.2228 0.8995 339.6013 21.2713 358.8835 353.9759 63.8722 36.2484 3.9403 340.5124 354.9553 28.8259 279.6054 353.6989 23.7303 359.0550 5.7525 356.6951 357.5129 10.6874 356.0951 0.3570 346.4846 21.2460 1.3474 334.0847 4.9940 0.5590 17.9935 0.5612 358.4203 353.8639 337.0217 
-7.2559 86.4309 57.8702 2.2894 359.5140 177.2742 359.3348 2.4874 357.7241 1.4906 14.6748 357.5147 4.7357 354.2538 0.0694 357.0027 21.6725 0.3973 339.1700 358.8232 6.3863 303.3898 29.5067 351.7268 14.5244 355.1311 323.4371 83.1175 0.7740 339.5298 21.2871 358.8905 354.0321 64.0185 36.2722 3.6262 340.4921 354.9404 28.7828 279.5837 353.5681 23.7966 359.0856 5.8082 356.5455 357.5189 10.8366 355.9860 0.1440 346.1914 21.1973 1.3092 334.1080 4.9816 0.5367 18.2200 0.7645 359.6538 353.2987 336.9705 
-7.0818 86.3559 57.4563 2.1707 359.3821 177.5438 359.4196 2.4703 357.7030 1.4097 14.5892 357.5075 4.7449 354.2665 0.0319 357.0069 21.6120 0.3625 339.1661 358.7971 6.4466 303.4739 29.4463 351.7357 14.5270 355.1410 323.4157 83.1521 0.6564 339.2314 21.2933 358.8780 354.0544 64.1554 36.2716 3.4088 340.4787 354.9346 28.7938 279.5947 353.5770 23.8645 359.0967 5.8435 356.4225 357.5346 11.0011 355.8468 0.0185 345.9237 21.1831 1.2502 334.0991 4.8908 0.4765 18.5894 1.0560 0.4093 353.2584 336.9370 
-6.8924 86.2875 57.0294 2.0626 359.2641 177.8054 359.4824 2.4493 357.6896 1.3732 14.5331 357.4998 4.7330 354.2681 359.9956 357.0494 21.5769 0.3193 339.1711 358.8108 6.4812 303.5617 29.3391 351.7173 14.4153 355.2025 323.3995 83.2462 0.5903 338.8416 21.2792 358.9044 354.1016 64.3094 36.1693 3.2140 340.5675 354.9678 28.7977 279.4705 353.5640 23.8645 359.1249 5.9080 356.2812 357.5536 11.1426 355.7838 359.8278 345.6561 21.1006 1.2175 334.1346 4.8631 0.3966 18.9430 1.5543 359.5145 354.3327 336.9340 
-6.7065 86.2386 56.6944 1.9738 358.8605 178.0420 359.6231 2.3059 357.6716 1.2709 14.3123 357.5020 4.7478 354.2979 359.9766 357.0750 21.5259 0.3025 339.1645 358.7832 6.5188 303.6731 29.2261 351.6992 14.3621 355.2214 323.3809 83.3119 0.3799 338.4587 21.3211 358.9127 354.1568 64.3617 36.1444 3.0671 340.5915 354.9556 28.8088 279.5426 353.5917 23.8502 359.1740 5.5635 356.1199 357.5842 11.4141 355.6630 359.6686 345.3965 21.1033 1.2518 333.7761 4.9418 0.3539 19.3465 1.7096 358.0233 355.8686 337.1457 
